<svg version="1.0" xmlns="http://www.w3.org/2000/svg" width="600.000000pt" height="335.000000pt" viewBox="0 0 600.000000 335.000000" preserveAspectRatio="xMidYMid meet"> <g transform="translate(0.000000,335.000000) scale(0.100000,-0.100000)" fill="#1a365d" stroke="none"> <path d="M2905 2694 c-109 -46 -273 -99 -372 -120 l-82 -17 -6 -56 c-4 -31 -9 -64 -11 -73 -4 -13 0 -18 13 -18 10 0 28 -3 41 -6 21 -6 22 -3 22 45 0 43 3 51 18 51 34 0 285 78 381 118 l94 39 61 -27 c76 -34 245 -91 348 -116 l78 -19 0 -49 c0 -45 1 -48 23 -42 12 3 30 6 39 6 13 0 16 6 13 28 -2 15 -7 48 -10 73 l-6 46 -82 17 c-104 23 -235 64 -361 116 -55 22 -104 40 -110 39 -6 0 -47 -16 -91 -35z m215 -39 c25 -9 65 -23 90 -31 25 -8 54 -19 65 -24 18 -7 112 -34 125 -35 3 0 10 -3 15 -6 6 -4 33 -12 61 -18 49 -12 52 -15 56 -47 5 -42 -7 -55 -16 -19 -6 25 -63 68 -77 59 -7 -4 -174 45 -224 65 -11 5 -64 25 -117 46 l-98 37 -127 -50 c-71 -28 -178 -64 -240 -80 -124 -32 -139 -40 -148 -83 -10 -44 -22 -26 -16 22 6 42 7 43 59 54 28 7 52 10 52 7 0 -3 5 -1 12 6 7 7 24 12 39 12 15 0 30 4 33 9 3 5 18 11 33 14 32 5 197 65 263 95 44 20 45 20 80 2 19 -10 55 -26 80 -35z"/> <path d="M2231 2365 c-210 -39 -393 -208 -445 -411 -20 -79 -20 -209 0 -288 36 -139 135 -269 265 -348 84 -51 145 -69 254 -75 225 -13 394 81 639 354 l29 32 -57 71 c-31 38 -60 70 -64 70 -5 0 -24 -22 -45 -48 -20 -27 -80 -91 -134 -143 -185 -179 -342 -219 -522 -131 -238 117 -292 442 -107 640 48 51 137 105 194 117 29 6 32 4 32 -18 0 -21 -155 -426 -197 -515 -15 -31 -14 -33 12 -68 54 -71 175 -103 276 -72 65 19 158 110 131 127 -19 12 -202 491 -202 528 l0 36 66 -7 c36 -4 89 -16 119 -27 116 -43 180 -108 537 -534 268 -320 443 -425 689 -412 134 7 228 47 358 154 2 1 2 5 0 8 -3 2 -26 -11 -52 -29 -47 -34 -150 -83 -190 -92 -114 -25 -245 -26 -302 -3 -16 7 -38 14 -48 16 -20 3 -99 42 -107 52 -3 3 -25 19 -50 35 -50 33 -185 165 -245 241 -22 27 -50 61 -61 75 -12 14 -66 79 -120 145 -54 66 -103 125 -108 131 -92 98 -148 148 -232 204 -185 123 -319 145 -499 85 -11 -4 -6 2 10 12 88 57 273 86 395 62 66 -13 159 -52 220 -93 61 -40 171 -147 236 -227 29 -36 59 -72 66 -80 8 -8 65 -72 128 -144 111 -127 135 -153 202 -225 42 -45 218 -170 278 -197 149 -68 317 -60 435 20 21 14 42 24 49 22 6 -2 27 17 47 43 176 229 157 546 -45 748 -116 116 -241 168 -406 167 -205 -1 -373 -95 -570 -321 l-63 -73 34 -37 c20 -20 47 -51 61 -69 l25 -31 98 115 c148 173 228 229 364 254 119 21 257 -27 344 -120 219 -234 111 -602 -199 -678 -114 -28 -236 5 -357 96 -42 31 -223 232 -502 559 -86 101 -199 199 -274 236 -122 62 -266 85 -390 61z m1588 -36 c63 -18 168 -65 176 -80 3 -3 -21 4 -53 17 -178 71 -392 48 -557 -61 -62 -41 -227 -201 -247 -239 -6 -11 25 15 69 59 110 110 213 197 213 179 0 -4 6 0 13 9 25 35 201 81 307 80 60 0 172 -29 231 -58 174 -89 278 -346 222 -550 -8 -27 -16 -58 -18 -68 -9 -38 -59 -117 -99 -154 -45 -43 -116 -93 -138 -97 -7 -1 -30 -8 -51 -15 -51 -17 -202 -6 -244 18 -14 8 -4 10 43 11 87 0 138 18 235 83 82 55 154 172 165 267 4 30 8 58 10 61 1 3 -2 39 -7 80 -39 279 -339 450 -589 336 -90 -41 -198 -136 -300 -264 -23 -29 -45 -53 -49 -53 -9 0 -81 81 -81 92 0 10 107 133 156 180 50 47 159 120 204 137 19 7 44 17 55 22 73 33 234 36 334 8z m-1476 -65 c44 -11 41 -23 -5 -23 -124 0 -247 -55 -326 -145 -40 -46 -88 -139 -98 -192 -19 -95 -1 -220 43 -308 20 -39 89 -112 138 -146 69 -48 201 -80 288 -71 4 1 9 1 12 1 30 3 110 36 159 67 68 42 178 143 246 227 25 30 48 55 51 56 4 0 23 -20 43 -45 25 -30 35 -51 31 -64 -9 -29 -143 -162 -225 -224 -125 -93 -224 -129 -361 -129 -93 -1 -165 15 -244 55 -66 32 -139 86 -130 95 3 3 -7 14 -22 24 -16 10 -25 18 -21 18 4 0 -5 12 -19 28 -28 29 -77 129 -88 177 -36 160 -28 252 30 374 94 196 280 280 498 225z m-75 -495 l-3 -110 -88 -2 c-55 -1 -86 2 -83 8 17 39 166 418 168 428 4 24 9 -216 6 -324z m32 310 c0 -6 36 -102 80 -213 44 -111 80 -204 80 -206 0 -3 -38 -5 -85 -5 l-85 0 0 200 c0 110 -3 211 -7 224 -4 17 -3 22 5 17 7 -4 12 -12 12 -17z m83 -451 c69 1 69 1 50 -20 -43 -47 -117 -67 -209 -56 -38 5 -121 57 -106 67 6 3 41 8 79 9 37 2 70 5 72 8 3 2 14 1 25 -2 11 -4 51 -6 89 -6z"/> <path d="M2776 1575 c-31 -30 -59 -55 -60 -55 -2 0 -23 -18 -46 -40 -23 -22 -46 -40 -51 -40 -4 0 -14 -6 -21 -13 -24 -23 -62 -44 -103 -56 -22 -7 -49 -16 -60 -21 -11 -4 -36 -12 -55 -18 -22 -6 -27 -10 -14 -11 67 -3 210 63 315 147 61 48 171 162 157 162 -2 0 -30 -25 -62 -55z"/> <path d="M2188 1323 c6 -2 18 -2 25 0 6 3 1 5 -13 5 -14 0 -19 -2 -12 -5z"/> <path d="M2295 1319 c-16 -6 -14 -8 13 -8 33 -1 41 4 20 12 -7 2 -22 1 -33 -4z"/> <path d="M3710 2176 c0 -29 -187 -508 -202 -517 -27 -17 55 -97 126 -124 94 -36 226 -3 282 70 25 34 26 36 11 67 -37 78 -197 492 -197 509 0 10 -4 19 -10 19 -5 0 -10 -11 -10 -24z m0 -301 l-5 -220 -82 -2 c-46 -1 -83 1 -83 4 0 4 35 97 79 208 43 110 81 209 85 219 4 10 7 17 9 15 1 -2 0 -103 -3 -224z m117 -9 c43 -109 79 -202 81 -205 1 -3 -37 -5 -85 -4 l-88 2 -2 223 c-1 128 2 215 7 203 4 -11 43 -110 87 -219z m4 -236 l73 0 -29 -30 c-76 -80 -273 -71 -329 15 l-17 26 90 -2 c50 -2 93 0 97 4 4 3 15 2 25 -3 10 -6 50 -10 90 -10z"/> <path d="M2436 2108 c16 -160 69 -353 132 -485 l29 -62 26 27 27 28 -35 79 c-45 106 -80 230 -96 341 -12 90 -13 92 -46 108 -19 9 -36 16 -38 16 -2 0 -2 -24 1 -52z m64 -123 c16 -94 54 -219 90 -299 16 -36 25 -68 21 -71 -13 -8 -77 144 -97 230 -1 6 -9 40 -18 77 -17 72 -32 217 -17 163 5 -16 14 -61 21 -100z"/> <path d="M3519 2139 c-23 -9 -26 -17 -37 -98 -15 -109 -51 -238 -99 -350 l-36 -84 24 -18 c13 -10 27 -19 30 -19 10 0 75 150 103 239 24 76 47 192 59 299 5 45 2 48 -44 31z m7 -86 c-8 -90 -18 -143 -26 -143 -5 0 -7 -8 -5 -17 1 -10 0 -22 -4 -28 -3 -5 -7 -19 -8 -30 -7 -48 -81 -225 -94 -225 -12 0 -13 -4 24 85 18 44 39 101 46 128 8 26 17 47 22 47 5 0 6 7 3 15 -4 8 -3 23 2 33 9 22 8 14 23 110 15 95 25 109 17 25z"/> <path d="M2937 1885 c10 -13 22 -25 27 -25 5 0 -1 11 -14 25 -30 32 -36 32 -13 0z"/> <path d="M3080 1700 c0 -5 5 -10 11 -10 5 0 7 5 4 10 -3 6 -8 10 -11 10 -2 0 -4 -4 -4 -10z"/> <path d="M2756 1353 l-29 -24 34 -30 c46 -41 169 -122 208 -139 30 -12 37 -11 79 9 56 28 133 79 186 125 l40 34 -30 25 -29 26 -35 -34 c-45 -43 -158 -115 -180 -115 -21 0 -125 67 -177 113 l-38 35 -29 -25z m74 -53 c37 -33 151 -100 170 -100 16 0 139 73 175 104 30 26 45 32 45 19 -1 -19 -191 -143 -220 -143 -36 0 -249 148 -214 150 6 0 26 -14 44 -30z"/> <path d="M2175 1005 c-14 -13 -25 -36 -25 -50 0 -18 -5 -25 -20 -25 -11 0 -20 -7 -20 -15 0 -8 9 -15 20 -15 19 0 20 -7 20 -90 0 -83 1 -90 20 -90 19 0 20 7 20 90 l0 90 30 0 c22 0 30 5 30 18 0 15 -6 18 -30 14 -24 -3 -30 -1 -30 15 0 26 19 43 47 43 26 0 31 25 7 34 -28 11 -44 6 -69 -19z m5 -85 c0 -5 -5 -10 -11 -10 -5 0 -7 5 -4 10 3 6 8 10 11 10 2 0 4 -4 4 -10z"/> <path d="M2276 1014 c-9 -22 17 -49 39 -40 10 3 15 15 13 28 -4 29 -42 37 -52 12z"/> <path d="M2644 1015 c-8 -21 2 -45 19 -45 21 0 38 25 31 44 -8 20 -43 21 -50 1z"/> <path d="M4198 1022 c-16 -3 -18 -19 -18 -153 0 -149 0 -149 23 -149 l23 0 -2 151 c-1 83 -4 152 -6 153 -1 1 -11 1 -20 -2z"/> <path d="M1770 865 l0 -145 25 0 25 0 -1 145 -1 145 -24 0 -24 0 0 -145z"/> <path d="M3240 865 l0 -145 95 0 c88 0 95 1 95 20 0 18 -7 20 -75 20 l-75 0 0 125 c0 118 -1 125 -20 125 -19 0 -20 -7 -20 -145z"/> <path d="M2760 959 c0 -26 -3 -31 -20 -26 -15 4 -20 0 -20 -14 0 -12 7 -19 20 -19 18 0 20 -7 20 -74 0 -66 3 -77 22 -90 24 -17 65 -21 85 -8 18 12 1 30 -32 34 -30 3 -30 4 -33 71 l-3 67 31 0 c20 0 30 5 30 15 0 10 -10 15 -30 15 -27 0 -30 3 -30 30 0 23 -4 30 -20 30 -16 0 -20 -7 -20 -31z"/> <path d="M1880 830 c0 -107 1 -110 23 -110 21 0 22 4 22 69 0 76 19 111 61 111 41 0 54 -25 54 -106 0 -67 2 -74 20 -74 18 0 20 7 20 83 0 58 -5 89 -15 104 -21 30 -78 40 -110 19 -30 -20 -35 -20 -35 -1 0 8 -9 15 -20 15 -19 0 -20 -7 -20 -110z"/> <path d="M2280 831 c0 -108 1 -111 23 -111 22 0 22 2 20 107 -2 101 -3 108 -22 111 -20 3 -21 -1 -21 -107z"/> <path d="M2390 828 c0 -101 1 -108 20 -108 18 0 20 7 20 68 0 80 17 112 59 112 43 0 51 -17 51 -102 0 -78 0 -78 26 -78 l27 0 -5 87 c-4 79 -7 88 -32 110 -31 26 -73 30 -102 8 -24 -19 -35 -19 -28 -1 4 10 -1 14 -15 13 -20 -1 -21 -7 -21 -109z"/> <path d="M2650 830 c0 -103 1 -110 20 -110 19 0 20 7 20 110 0 103 -1 110 -20 110 -19 0 -20 -7 -20 -110z"/> <path d="M2880 925 c0 -5 20 -53 44 -105 38 -82 42 -98 31 -115 -8 -12 -24 -20 -41 -20 -38 -1 -46 -32 -10 -41 58 -14 72 2 136 156 24 58 47 109 52 114 14 17 9 26 -14 23 -16 -3 -29 -20 -49 -68 -15 -35 -30 -73 -33 -84 -6 -19 -28 23 -67 125 -9 25 -49 37 -49 15z"/> <path d="M3488 923 c-98 -61 -41 -215 74 -200 49 7 78 31 60 49 -9 9 -15 9 -24 0 -19 -19 -82 -15 -101 6 -34 37 -22 44 69 41 l86 -4 -6 29 c-17 83 -92 120 -158 79z m105 -45 c9 -11 17 -23 17 -27 0 -3 -29 -6 -65 -6 -72 0 -81 11 -38 44 30 24 58 20 86 -11z"/> <path d="M3708 911 c-28 -25 -33 -36 -33 -76 0 -40 5 -51 33 -76 39 -35 92 -39 122 -9 l20 20 0 -25 c0 -54 -64 -81 -125 -53 -22 10 -28 9 -36 -3 -20 -32 74 -59 136 -39 53 18 65 50 65 177 0 102 -1 109 -20 110 -12 1 -20 -4 -20 -14 0 -14 -3 -14 -25 1 -38 25 -80 20 -117 -13z m122 -31 c41 -41 13 -110 -45 -110 -31 0 -65 21 -65 40 0 5 -2 15 -5 22 -3 8 4 26 15 41 26 33 71 36 100 7z"/> <path d="M3968 929 c-24 -9 -26 -13 -17 -31 8 -15 14 -17 22 -9 19 19 85 13 97 -8 15 -28 15 -28 -46 -33 -31 -3 -62 -11 -71 -20 -23 -24 -19 -69 7 -90 27 -22 83 -24 100 -3 7 8 16 15 21 15 5 0 6 -7 3 -15 -4 -10 0 -15 15 -15 20 0 21 5 21 84 0 104 -14 126 -80 132 -25 2 -57 -1 -72 -7z m110 -131 c-4 -31 -52 -57 -75 -42 -23 14 -29 44 -11 55 7 5 30 9 51 9 34 0 38 -3 35 -22z"/> </g> </svg>
